<svg width="116" height="38" viewBox="0 0 116 38" fill="none" xmlns="http://www.w3.org/2000/svg">
<path d="M8.09375 30.3906C6.09375 30.3906 4.48958 29.6562 3.28125 28.1875C2.08333 26.7083 1.48438 24.6302 1.48438 21.9531C1.48438 20.2135 1.80729 18.7083 2.45312 17.4375C3.10938 16.1667 3.95833 15.1927 5 14.5156C6.05208 13.8281 7.17708 13.4844 8.375 13.4844C9.29167 13.4844 10.0833 13.6458 10.75 13.9688C11.4167 14.2917 12.0729 14.7344 12.7188 15.2969L12.6094 12.6406V6.625H15.9219V30H13.1875L12.9531 28.1875H12.8438C12.2292 28.8021 11.5156 29.3229 10.7031 29.75C9.89062 30.1771 9.02083 30.3906 8.09375 30.3906ZM8.90625 27.6562C10.2083 27.6562 11.4427 26.9948 12.6094 25.6719V17.7344C11.9948 17.1927 11.3906 16.8073 10.7969 16.5781C10.2031 16.3385 9.61458 16.2188 9.03125 16.2188C7.88542 16.2188 6.90625 16.7344 6.09375 17.7656C5.28125 18.7865 4.875 20.1823 4.875 21.9531C4.875 23.776 5.22396 25.1823 5.92188 26.1719C6.63021 27.1615 7.625 27.6562 8.90625 27.6562ZM24.8438 30.3906C23.4479 30.3906 22.3021 29.974 21.4062 29.1406C20.5208 28.3073 20.0781 27.1771 20.0781 25.75C20.0781 24.0104 20.849 22.6667 22.3906 21.7188C23.9323 20.7708 26.3906 20.1094 29.7656 19.7344C29.7552 19.1094 29.651 18.526 29.4531 17.9844C29.2656 17.4427 28.9479 17.0052 28.5 16.6719C28.0521 16.3281 27.4323 16.1562 26.6406 16.1562C25.776 16.1562 24.9531 16.3229 24.1719 16.6562C23.3906 16.9792 22.6562 17.3438 21.9688 17.75L20.75 15.5938C21.5625 15.0521 22.5208 14.5677 23.625 14.1406C24.7396 13.7031 25.9427 13.4844 27.2344 13.4844C29.224 13.4844 30.6927 14.0885 31.6406 15.2969C32.5885 16.4948 33.0625 18.1667 33.0625 20.3125V30H30.3281L30.0938 28.1562H29.9844C29.2344 28.7812 28.4271 29.3125 27.5625 29.75C26.7083 30.1771 25.8021 30.3906 24.8438 30.3906ZM25.8438 27.7812C26.5521 27.7812 27.2083 27.6198 27.8125 27.2969C28.4271 26.9635 29.0781 26.4896 29.7656 25.875V21.8438C27.3385 22.1458 25.651 22.6042 24.7031 23.2188C23.7552 23.8229 23.2812 24.5781 23.2812 25.4844C23.2812 26.2969 23.526 26.8854 24.0156 27.25C24.5052 27.6042 25.1146 27.7812 25.8438 27.7812ZM37.8438 30V13.8906H40.5781L40.8438 16.1094H40.9219C41.6719 15.3802 42.474 14.7604 43.3281 14.25C44.1927 13.7396 45.1771 13.4844 46.2812 13.4844C47.9792 13.4844 49.224 14.0365 50.0156 15.1406C50.8073 16.2344 51.2031 17.8021 51.2031 19.8438V30H47.9062V20.2656C47.9062 18.8594 47.6875 17.8542 47.25 17.25C46.8229 16.6354 46.1198 16.3281 45.1406 16.3281C44.401 16.3281 43.7344 16.5208 43.1406 16.9062C42.5469 17.2917 41.8854 17.8438 41.1562 18.5625V30H37.8438ZM61.6406 37.25C59.6823 37.25 58.0781 36.8906 56.8281 36.1719C55.5781 35.4635 54.9531 34.4062 54.9531 33C54.9531 32.3021 55.1562 31.6562 55.5625 31.0625C55.9688 30.4688 56.5365 29.9375 57.2656 29.4688V29.3281C56.8594 29.0781 56.5208 28.7344 56.25 28.2969C55.9792 27.8594 55.8438 27.3177 55.8438 26.6719C55.8438 26.026 56.026 25.4427 56.3906 24.9219C56.7656 24.3906 57.1719 23.974 57.6094 23.6719V23.5312C57.0573 23.125 56.5677 22.5573 56.1406 21.8281C55.724 21.0885 55.5156 20.2396 55.5156 19.2812C55.5156 18.0625 55.8021 17.0208 56.375 16.1562C56.9479 15.2917 57.7031 14.6302 58.6406 14.1719C59.5885 13.7135 60.6198 13.4844 61.7344 13.4844C62.1823 13.4844 62.6042 13.526 63 13.6094C63.3958 13.6823 63.75 13.776 64.0625 13.8906H69.7812V16.3594H66.6719C66.974 16.7031 67.2292 17.1354 67.4375 17.6562C67.6562 18.1771 67.7656 18.7396 67.7656 19.3438C67.7656 20.5208 67.4948 21.526 66.9531 22.3594C66.4219 23.1823 65.6979 23.8125 64.7812 24.25C63.875 24.6771 62.8594 24.8906 61.7344 24.8906C61.3698 24.8906 60.9896 24.8542 60.5938 24.7812C60.1979 24.6979 59.8229 24.5781 59.4688 24.4219C59.1979 24.6406 58.9792 24.8802 58.8125 25.1406C58.6458 25.401 58.5625 25.724 58.5625 26.1094C58.5625 26.599 58.7552 26.9896 59.1406 27.2812C59.5365 27.5625 60.25 27.7031 61.2812 27.7031H64.2656C66.1719 27.7031 67.6094 28.0156 68.5781 28.6406C69.5573 29.2656 70.0469 30.2604 70.0469 31.625C70.0469 32.6562 69.6979 33.5938 69 34.4375C68.3125 35.2917 67.3385 35.974 66.0781 36.4844C64.8281 36.9948 63.349 37.25 61.6406 37.25ZM61.7344 22.7812C62.5781 22.7812 63.3021 22.4688 63.9062 21.8438C64.5208 21.2188 64.8281 20.3646 64.8281 19.2812C64.8281 18.1771 64.526 17.3229 63.9219 16.7188C63.3177 16.1146 62.5885 15.8125 61.7344 15.8125C60.8698 15.8125 60.1406 16.1146 59.5469 16.7188C58.9531 17.3229 58.6562 18.1771 58.6562 19.2812C58.6562 20.3646 58.9583 21.2188 59.5625 21.8438C60.1667 22.4688 60.8906 22.7812 61.7344 22.7812ZM62.125 35.0469C63.5312 35.0469 64.6615 34.75 65.5156 34.1562C66.3802 33.5729 66.8125 32.901 66.8125 32.1406C66.8125 31.4531 66.5573 30.9844 66.0469 30.7344C65.5469 30.4844 64.8021 30.3594 63.8125 30.3594H61.3438C60.5208 30.3594 59.8021 30.2812 59.1875 30.125C58.6875 30.4792 58.3281 30.8594 58.1094 31.2656C57.8906 31.6823 57.7812 32.099 57.7812 32.5156C57.7812 33.3073 58.1667 33.9271 58.9375 34.375C59.7083 34.8229 60.7708 35.0469 62.125 35.0469ZM73 30V13.8906H76.3125V30H73ZM74.6875 10.8438C74.0729 10.8438 73.5781 10.6615 73.2031 10.2969C72.8281 9.92188 72.6406 9.43229 72.6406 8.82812C72.6406 8.24479 72.8281 7.77604 73.2031 7.42188C73.5781 7.05729 74.0729 6.875 74.6875 6.875C75.3021 6.875 75.7969 7.05729 76.1719 7.42188C76.5469 7.77604 76.7344 8.24479 76.7344 8.82812C76.7344 9.43229 76.5469 9.92188 76.1719 10.2969C75.7969 10.6615 75.3021 10.8438 74.6875 10.8438ZM84.7344 30.3906C83.5365 30.3906 82.6823 30.0312 82.1719 29.3125C81.6615 28.5833 81.4062 27.5677 81.4062 26.2656V6.625H84.7188V26.4531C84.7188 26.9219 84.8021 27.2448 84.9688 27.4219C85.1354 27.599 85.3281 27.6875 85.5469 27.6875C85.6302 27.6875 85.7083 27.6875 85.7812 27.6875C85.8646 27.6771 85.974 27.6562 86.1094 27.625L86.5156 30.0781C86.3073 30.1719 86.0521 30.2448 85.75 30.2969C85.4583 30.3594 85.1198 30.3906 84.7344 30.3906ZM93.9375 30.3906C92.5417 30.3906 91.3958 29.974 90.5 29.1406C89.6146 28.3073 89.1719 27.1771 89.1719 25.75C89.1719 24.0104 89.9427 22.6667 91.4844 21.7188C93.026 20.7708 95.4844 20.1094 98.8594 19.7344C98.849 19.1094 98.7448 18.526 98.5469 17.9844C98.3594 17.4427 98.0417 17.0052 97.5938 16.6719C97.1458 16.3281 96.526 16.1562 95.7344 16.1562C94.8698 16.1562 94.0469 16.3229 93.2656 16.6562C92.4844 16.9792 91.75 17.3438 91.0625 17.75L89.8438 15.5938C90.6562 15.0521 91.6146 14.5677 92.7188 14.1406C93.8333 13.7031 95.0365 13.4844 96.3281 13.4844C98.3177 13.4844 99.7865 14.0885 100.734 15.2969C101.682 16.4948 102.156 18.1667 102.156 20.3125V30H99.4219L99.1875 28.1562H99.0781C98.3281 28.7812 97.5208 29.3125 96.6562 29.75C95.8021 30.1771 94.8958 30.3906 93.9375 30.3906ZM94.9375 27.7812C95.6458 27.7812 96.3021 27.6198 96.9062 27.2969C97.5208 26.9635 98.1719 26.4896 98.8594 25.875V21.8438C96.4323 22.1458 94.7448 22.6042 93.7969 23.2188C92.849 23.8229 92.375 24.5781 92.375 25.4844C92.375 26.2969 92.6198 26.8854 93.1094 27.25C93.599 27.6042 94.2083 27.7812 94.9375 27.7812Z" fill="#505050"/>
<path d="M102.818 12V4.69336L100.346 4.69336V3.87891L106.258 3.87891V4.69336H103.779V12H102.818ZM107.734 12V3.87891H108.906L110.488 8.2793C110.59 8.56445 110.688 8.84961 110.781 9.13477C110.879 9.41602 110.977 9.69922 111.074 9.98438H111.121C111.223 9.69922 111.318 9.41602 111.408 9.13477C111.498 8.84961 111.592 8.56445 111.689 8.2793L113.248 3.87891H114.438V12H113.535V7.40039C113.535 7.04883 113.549 6.64258 113.576 6.18164C113.604 5.7207 113.631 5.31055 113.658 4.95117H113.605L112.967 6.86719L111.408 11.1738H110.74L109.182 6.86719L108.537 4.95117H108.484C108.512 5.31055 108.537 5.7207 108.561 6.18164C108.584 6.64258 108.596 7.04883 108.596 7.40039V12H107.734Z" fill="#505050"/>
</svg>
