<svg width="38" height="22" viewBox="0 0 38 22" fill="none" xmlns="http://www.w3.org/2000/svg">
<path d="M37.5 20.3125C37.5 19.8981 37.3354 19.5007 37.0424 19.2076C36.7493 18.9146 36.3519 18.75 35.9375 18.75H26.5625C26.1481 18.75 25.7507 18.9146 25.4576 19.2076C25.1646 19.5007 25 19.8981 25 20.3125C25 20.7269 25.1646 21.1243 25.4576 21.4174C25.7507 21.7104 26.1481 21.875 26.5625 21.875H35.9375C36.3519 21.875 36.7493 21.7104 37.0424 21.4174C37.3354 21.1243 37.5 20.7269 37.5 20.3125ZM37.5 10.9375C37.5 10.5231 37.3354 10.1257 37.0424 9.83265C36.7493 9.53962 36.3519 9.375 35.9375 9.375H14.0625C13.6481 9.375 13.2507 9.53962 12.9576 9.83265C12.6646 10.1257 12.5 10.5231 12.5 10.9375C12.5 11.3519 12.6646 11.7493 12.9576 12.0424C13.2507 12.3354 13.6481 12.5 14.0625 12.5H35.9375C36.3519 12.5 36.7493 12.3354 37.0424 12.0424C37.3354 11.7493 37.5 11.3519 37.5 10.9375ZM37.5 1.5625C37.5 1.1481 37.3354 0.750672 37.0424 0.457646C36.7493 0.16462 36.3519 0 35.9375 0H1.5625C1.1481 0 0.750672 0.16462 0.457646 0.457646C0.16462 0.750672 0 1.1481 0 1.5625C0 1.9769 0.16462 2.37433 0.457646 2.66735C0.750672 2.96038 1.1481 3.125 1.5625 3.125H35.9375C36.3519 3.125 36.7493 2.96038 37.0424 2.66735C37.3354 2.37433 37.5 1.9769 37.5 1.5625Z" fill="#505050"/>
</svg>
