<svg width="41" height="45" viewBox="0 0 41 45" fill="none" xmlns="http://www.w3.org/2000/svg">
<path d="M15.4685 10.0311V2.6627C15.4685 1.19504 14.2744 0.000976562 12.8067 0.000976562H7.93515C6.46741 0.000976562 5.27334 1.19504 5.27334 2.6627V10.0311C2.28591 10.5259 0 13.1264 0 16.252V42.3634C0 43.8173 1.18281 45.0001 2.63667 45.0001H18.1052C19.559 45.0001 20.7418 43.8173 20.7418 42.3634V33.2627C20.7418 32.7774 20.3483 32.3838 19.8629 32.3838C19.3776 32.3838 18.984 32.7774 18.984 33.2627V42.3634C18.984 42.848 18.5898 43.2423 18.1052 43.2423H2.63667C2.15205 43.2423 1.75778 42.848 1.75778 42.3634V16.252C1.75778 13.7435 3.79857 11.7026 6.3071 11.7026H14.4348C16.9433 11.7026 18.9841 13.7435 18.9841 16.252V25.3527C18.9841 25.838 19.3777 26.2316 19.863 26.2316C20.3483 26.2316 20.7419 25.838 20.7419 25.3527V16.252C20.7418 13.1264 18.4559 10.5259 15.4685 10.0311ZM7.03113 9.94492V2.6627C7.03113 2.16428 7.43665 1.75876 7.93515 1.75876H12.8067C13.3052 1.75876 13.7107 2.16428 13.7107 2.6627V9.94483H7.03113V9.94492Z" fill="#A1613B"/>
<path d="M36.5391 37.684L33.7538 34.0899C33.5878 33.8756 33.3322 33.75 33.0612 33.7494C33.0605 33.7494 33.0598 33.7494 33.0598 33.7494C32.7888 33.7494 32.5335 33.8738 32.3669 34.0867L29.5694 37.662C29.5618 37.6717 29.5544 37.6816 29.5472 37.6916C28.9099 38.4864 28.5597 39.483 28.5597 40.5049C28.5597 42.9831 30.5724 44.9993 33.0463 44.9993C35.5203 44.9993 37.533 42.9832 37.533 40.5049C37.533 39.4809 37.1802 38.48 36.5393 37.6843C36.5392 37.6842 36.5392 37.6841 36.5391 37.684ZM33.0463 43.2414C31.5417 43.2414 30.3175 42.0138 30.3175 40.5048C30.3175 39.8696 30.5391 39.251 30.9418 38.7627C30.9581 38.743 33.0558 36.0588 33.0558 36.0588C33.0558 36.0588 35.154 38.7666 35.1624 38.7769C35.5634 39.2699 35.7753 39.8673 35.7753 40.5048C35.7752 42.0138 34.551 43.2414 33.0463 43.2414Z" fill="#A1613B"/>
<path d="M38.1438 10.8757V5.09757C38.1438 2.28679 35.857 0 33.0463 0C30.2355 0 27.9487 2.28679 27.9487 5.09757V10.8757C26.722 11.3039 25.8394 12.4717 25.8394 13.8425V17.2043C25.8394 17.6896 26.2329 18.0832 26.7182 18.0832H29.3549V27.5972C29.3549 29.6326 31.0108 31.2885 33.0463 31.2885C35.0817 31.2885 36.7376 29.6326 36.7376 27.5972V18.0832H39.3743C39.8596 18.0832 40.2532 17.6896 40.2532 17.2043V13.8425C40.2532 12.4717 39.3705 11.3039 38.1438 10.8757ZM29.7065 5.09757C29.7065 3.25603 31.2047 1.75778 33.0463 1.75778C34.8878 1.75778 36.386 3.25603 36.386 5.09757V10.7005H29.7065V5.09757ZM34.9798 27.5972C34.9798 28.6634 34.1124 29.5307 33.0463 29.5307C31.9801 29.5307 31.1127 28.6634 31.1127 27.5972V18.0832H34.9798V27.5972ZM38.4954 16.3254H27.5971V13.8425C27.5971 13.0792 28.2181 12.4583 28.9814 12.4583H37.1111C37.8744 12.4583 38.4954 13.0792 38.4954 13.8425V16.3254Z" fill="#A1613B"/>
<path d="M10.8111 19.405C10.5388 19.2474 10.2029 19.2474 9.93065 19.405C7.0579 21.0675 5.27332 24.1584 5.27332 27.4715C5.27332 30.7846 7.0579 33.8755 9.93065 35.5379C10.0668 35.6167 10.2188 35.6561 10.3709 35.6561C10.5229 35.6561 10.675 35.6168 10.8111 35.5379C13.6839 33.8756 15.4684 30.7847 15.4684 27.4715C15.4684 24.1584 13.6839 21.0675 10.8111 19.405ZM11.2498 33.0471V27.4715C11.2498 26.9861 10.8562 26.5926 10.3709 26.5926C9.88556 26.5926 9.49199 26.9861 9.49199 27.4715V33.0471C7.9462 31.6296 7.0311 29.6076 7.0311 27.4715C7.0311 24.9571 8.29855 22.6001 10.3709 21.2018C12.4432 22.6001 13.7107 24.9571 13.7107 27.4715C13.7107 29.6075 12.7956 31.6296 11.2498 33.0471Z" fill="#A1613B"/>
<path d="M19.8629 28.4279C19.6318 28.4279 19.405 28.5218 19.2415 28.6854C19.078 28.8489 18.984 29.0755 18.984 29.3067C18.984 29.5388 19.078 29.7646 19.2415 29.928C19.405 30.0915 19.6318 30.1856 19.8629 30.1856C20.094 30.1856 20.3208 30.0916 20.4842 29.928C20.6477 29.7646 20.7418 29.5379 20.7418 29.3067C20.7418 29.0755 20.6477 28.8488 20.4842 28.6854C20.3208 28.5219 20.094 28.4279 19.8629 28.4279Z" fill="#A1613B"/>
</svg>
